{"accessors":[{"bufferView":2,"componentType":5126,"count":880,"max":[67.79454040527344,2.750964403152466,34.135475158691406],"min":[-67.79454040527344,-2.750964403152466,-34.135475158691406],"type":"VEC3"},{"bufferView":2,"byteOffset":10560,"componentType":5126,"count":880,"type":"VEC3"},{"bufferView":3,"componentType":5126,"count":880,"type":"VEC4"},{"bufferView":1,"componentType":5126,"count":880,"type":"VEC2"},{"bufferView":1,"byteOffset":7040,"componentType":5126,"count":880,"type":"VEC2"},{"bufferView":0,"componentType":5125,"count":2898,"type":"SCALAR"}],"asset":{"generator":"fab-model-conversion","version":"2.0"},"bufferViews":[{"buffer":0,"byteLength":11592,"target":34963},{"buffer":0,"byteLength":14080,"byteOffset":11592,"byteStride":8,"target":34962},{"buffer":0,"byteLength":21120,"byteOffset":25672,"byteStride":12,"target":34962},{"buffer":0,"byteLength":14080,"byteOffset":46792,"byteStride":16,"target":34962}],"buffers":[{"byteLength":60872,"uri":"data:application/octet-stream;base64,"}],"images":[{"uri":"White_board_baseColor.png"},{"uri":"White_board_metallicRoughness.png"},{"uri":"White_board_normal.png"}],"materials":[{"doubleSided":true,"name":"White_board","normalTexture":{"index":2},"occlusionTexture":{"index":1},"pbrMetallicRoughness":{"baseColorTexture":{"index":0},"metallicRoughnessTexture":{"index":1},"baseColorFactor":[1.0,1.0,1.0,1.0]}}],"meshes":[{"name":"White_board_White_board_0","primitives":[{"attributes":{"NORMAL":1,"POSITION":0,"TANGENT":2,"TEXCOORD_0":3,"TEXCOORD_1":4},"indices":5,"material":0,"mode":4}]}],"nodes":[{"children":[1],"matrix":[1.0,0.0,0.0,0.0,0.0,2.220446049250313e-16,-1.0,0.0,0.0,1.0,2.220446049250313e-16,0.0,0.0,0.0,0.0,1.0],"name":"Sketchfab_model"},{"children":[2],"matrix":[0.009999999776482582,0.0,0.0,0.0,0.0,0.0,0.009999999776482582,0.0,0.0,-0.009999999776482582,0.0,0.0,0.0,0.0,0.0,1.0],"name":"White_board.fbx"},{"children":[3],"name":"RootNode"},{"children":[4],"matrix":[1.0,0.0,0.0,0.0,0.0,2.220446049250313e-16,-1.0,0.0,0.0,1.0,2.220446049250313e-16,0.0,0.0,34.05970764160156,0.0,1.0],"name":"White_board"},{"mesh":0,"name":"White_board_White_board_0"}],"samplers":[{"magFilter":9729,"minFilter":9987,"wrapS":10497,"wrapT":10497}],"scene":0,"scenes":[{"name":"Sketchfab_Scene","nodes":[0]}],"textures":[{"sampler":0,"source":0},{"sampler":0,"source":1},{"sampler":0,"source":2}]}